<?xml version="1.0" encoding="UTF-8"?>
<svg id="Ebene_1" xmlns="http://www.w3.org/2000/svg" version="1.1" viewBox="0 0 521.99 658.19">
  <!-- Generator: Adobe Illustrator 30.5.0, SVG Export Plug-In . SVG Version: 2.1.4 Build 64)  -->
  <defs>
    <style>
      .st0 {
        fill: none;
        stroke: #77bf88;
        stroke-miterlimit: 10;
        stroke-width: .75px;
      }
    </style>
  </defs>
  <path class="st0" d="M208.4,626.42c-36.79,71.44-228.62,5.66-129.48-45.95,78.27-40.74,218.51,142.67,299.45-35.33,29.72-46.66,74.05-119.41,76.36-177.07,1.46-36.35-50.97-16.69-75.01,8.8-27.19,28.84-53.65,81.86-28.4,93.21,20.39,9.17,51.35-20.1,64.08-37.14,50.43-67.46,44.75-175.65-29.46-116.73-182.82,145.15-4.46,328.85,91.72,104.08,14.08-32.9,23.36-79.73-7.62-102.65-80.21-41.58-231.67,160.95-115.08,214.75,49.46,22.83,112.03-6.39,148.38-91.11,22.96-53.5,11.71-99.01-5.1-114.86-20.27-19.11-7.98-63.04,7.03-44.23,13.24,16.58-18.74,76.86-37.7,57.49-20.39-20.82,10-77.86,14.39-104.05C514.11,43.68,218.6-62.25,124.06,158.92c-6.1,14.27-18.07,5.62-14.1-5.42C196.11-86.47,537.63,3.64,502.66,251.81c-1.65,11.68,12.89,17,14.94,5.64C561.79,12.25,228.82-104.14,105.48,120.17c-27.19,49.45,21.55,95.57-8.68,102.9C-1.31,246.86,3.21,443.89,89.08,476.42c108,40.92,139.03-201.56,52.9-250.94C72.94,185.9,9.31,247.13,1.59,335.5c-2.73,31.26-2.78,69.32,21.38,108.11,68.94,110.73,150.51-56.89,122.55-137.66-8.5-24.55-42.8-42.52-51.87,45.19-5.2,50.31,19.68,96.65,44.52,77.32,26.3-20.45,51.41-170.8-15.48-181.99-77.55-12.98-82.68,193.42-15.06,217.52,52.75,18.8,136.63,86.52,100.77,162.41Z"/>
</svg>
