<?xml version="1.0" encoding="UTF-8"?>
<svg id="Ebene_1" xmlns="http://www.w3.org/2000/svg" version="1.1" viewBox="0 0 940 940">
  <!-- Generator: Adobe Illustrator 30.5.0, SVG Export Plug-In . SVG Version: 2.1.4 Build 64)  -->
  <defs>
    <style>
      .st0 {
        fill: #fff;
      }

      .st1 {
        fill: #4ca652;
      }
    </style>
  </defs>
  <path class="st1" d="M156.68,721.39c2.31-10.86-4.3-21.49-11.86-27.2l-1.03-.78-.92-.94c-30.15-30.61-61.44-66.24-86.06-119.28-29.08-62.63-39.4-131.04-29.86-197.85,9.27-64.9,37.05-127.23,80.32-180.25,55.33-67.81,131.39-117.53,219.94-143.79,45.85-13.6,93.66-20.49,142.1-20.49,61.38,0,120.89,10.91,176.87,32.42,58.76,22.58,110.75,55.83,154.54,98.82l.37.37,29.42,32.41.31.38c115.1,140.93,110.98,334.31-10.01,470.27-21.53,24.19-40.68,42.04-62.08,57.86-29.4,21.73-56.52,37.93-85.35,50.98-64.47,29.18-132.89,43.98-203.36,43.98-41.22,0-82.65-5.18-123.12-15.4l-.59-.15-.58-.19c-2.9-.97-5.55-1.44-8.12-1.44-3.95,0-8.17,1.08-13.68,3.49l-203.85,89.23,36.61-172.44Z"/>
  <path class="st0" d="M470,45.77c236.1,0,428.17,169.03,428.17,376.79s-192.08,376.79-428.17,376.79c-41.44,0-69.52-4.07-109.89-12.4l-10.43-2.73c-9.37-2.45-19.19-1.65-28.13,2.28l-17.28,7.61-160.18,70.52,29.41-137.28,1.98-9.26c2.37-11.06-1.13-22.64-9.05-29.98l-6.64-6.14c-76.08-70.44-117.98-162.56-117.98-259.41,0-207.76,192.08-376.79,428.17-376.79M470,0C210.43,0,0,189.19,0,422.56c0,114.44,50.6,218.26,132.79,294.35l-47.79,223.09,253.54-111.63c41.72,10.91,85.83,16.75,131.46,16.75,259.57,0,470-189.19,470-422.56S729.57,0,470,0h0Z"/>
  <g>
    <path class="st0" d="M529.32,232.05c63.02,76.07,67.27,202.61,4.09,282.27-43.74,50.83-106.65,78.98-174.63,79.08l-138.53.21-.02-432.42,134.29.15c43.76.05,84.21,10.49,123.29,28.97,17.86,12.48,37.71,25.09,51.51,41.75ZM489.43,370.88c-3.73-74.22-57.89-131.11-130.87-130.7l-52.43.29v273.54c24.32,1.09,46.46,1.72,67.85-1.04,71.32-9.2,119.16-68.4,115.46-142.09Z"/>
    <path class="st0" d="M594.54,725.62l-3.94-27.21c18.54-20.1,33.91-44.95,33.99-74.19l.91-310.45,84.01-10.82-1.14,27.57-.73,294.01c-.07,30.21-12.07,65.14-33.34,85.86-23.73,7.19-50.91,9.99-79.77,15.24Z"/>
    <circle class="st0" cx="667.37" cy="206.38" r="50.65"/>
  </g>
</svg>