<?xml version="1.0" encoding="UTF-8"?>
<svg id="Ebene_1" xmlns="http://www.w3.org/2000/svg" version="1.1" viewBox="0 0 435.48 344.66">
  <!-- Generator: Adobe Illustrator 30.5.0, SVG Export Plug-In . SVG Version: 2.1.4 Build 64)  -->
  <defs>
    <style>
      .st0 {
        fill: #c2c1c1;
      }

      .st1 {
        fill: #e2e2e1;
      }
    </style>
  </defs>
  <path class="st0" d="M233.77,221.37c-9.88-4.09-19.1-9.11-29.03-15.82-7.57-5.11-14.26-10.79-21.67-18.41-21.01-21.58-32.94-48.97-33.6-77.15-.26-11.18,1.26-22.3,4.44-33.05-.85-.01-1.7-.03-2.56-.03-16.45,0-32.68,2.14-48.24,6.36-30.06,8.15-55.88,23.57-74.67,44.61-14.69,16.45-24.12,35.79-27.27,55.92-3.24,20.73.27,41.95,10.14,61.38,8.36,16.46,18.98,27.51,29.22,37l.31.29.35.24c2.57,1.77,4.81,5.07,4.03,8.44h0s-12.43,53.5-12.43,53.5l69.2-27.68c1.87-.75,3.3-1.08,4.64-1.08.87,0,1.77.15,2.75.45l.2.06.2.05c13.74,3.17,27.81,4.78,41.8,4.78,23.93,0,47.15-4.59,69.04-13.65,9.79-4.05,18.99-9.08,28.97-15.82,7.27-4.91,13.77-10.44,21.08-17.95,11.55-11.86,19.96-25.13,25.22-39.04-21.48-.73-42.35-5.22-62.12-13.4Z"/>
  <path class="st1" d="M434.45,94.02c-2.77-17.71-11.06-34.72-23.98-49.19-16.52-18.5-39.24-32.07-65.68-39.24-13.69-3.71-27.97-5.59-42.43-5.59-18.33,0-36.1,2.98-52.81,8.85-17.55,6.16-33.07,15.23-46.15,26.97l-.11.1-8.79,8.84-.09.1c-34.37,38.46-33.14,91.23,2.99,128.33,6.43,6.6,12.15,11.47,18.54,15.79,8.78,5.93,16.88,10.35,25.48,13.91,19.25,7.97,39.68,12,60.73,12,12.31,0,24.68-1.41,36.77-4.2l.18-.04.17-.05c.86-.26,1.66-.39,2.42-.39,1.18,0,2.44.29,4.08.95l60.87,24.35-10.93-47.06h0c-.69-2.97,1.28-5.87,3.54-7.42l.31-.21.28-.25c9-8.35,18.34-18.08,25.7-32.55,8.68-17.09,11.77-35.76,8.92-53.99Z"/>
</svg>